<?xml version="1.0" standalone="no"?>
<!DOCTYPE svg PUBLIC "-//W3C//DTD SVG 20010904//EN"
 "http://www.w3.org/TR/2001/REC-SVG-20010904/DTD/svg10.dtd">
<svg version="1.0" xmlns="http://www.w3.org/2000/svg"
 width="1024.000000pt" height="1024.000000pt" viewBox="0 0 1024.000000 1024.000000"
 preserveAspectRatio="xMidYMid meet">

<g transform="translate(0.000000,1024.000000) scale(0.100000,-0.100000)"
fill="#000000" stroke="none">
<path d="M5009 7710 c-24 -7 -245 -131 -993 -559 -210 -120 -315 -186 -330
-206 -20 -29 -21 -43 -24 -290 -3 -254 -2 -261 20 -305 23 -43 37 -52 666
-411 406 -232 657 -370 682 -374 52 -9 64 -3 475 232 193 110 460 262 595 338
135 76 260 149 278 162 60 45 62 55 62 345 0 237 -2 267 -18 298 -15 27 -49
51 -166 118 -81 46 -154 81 -161 78 -7 -2 -131 -146 -276 -318 -145 -172 -370
-438 -502 -591 l-238 -278 -112 103 c-62 57 -227 210 -367 340 -295 273 -317
295 -304 306 10 10 222 165 271 200 l33 23 210 -186 c137 -121 214 -184 223
-179 6 5 59 47 117 95 58 48 247 203 420 344 173 141 316 260 318 264 3 9
-735 429 -787 447 -41 15 -55 16 -92 4z"/>
<path d="M3718 6009 c-56 -45 -60 -71 -56 -354 3 -241 4 -251 26 -282 16 -22
106 -79 320 -199 163 -92 454 -257 646 -366 310 -175 355 -198 394 -198 54 0
39 -8 801 422 487 275 556 317 572 348 17 31 19 61 19 309 l0 274 -40 39 c-23
21 -49 38 -59 38 -10 0 -290 -156 -622 -346 -529 -304 -610 -347 -655 -351
-36 -4 -60 0 -84 12 -18 9 -281 160 -584 334 -599 345 -609 351 -628 351 -7 0
-30 -14 -50 -31z"/>
<path d="M6120 4228 c0 -16 -26 -42 -51 -51 -8 -3 -44 8 -80 24 -86 38 -141
39 -179 1 -26 -27 -50 -85 -50 -124 0 -28 48 -23 72 7 14 18 29 25 52 25 19 0
59 -11 90 -25 65 -29 105 -31 147 -9 54 27 94 154 50 154 -11 0 -26 3 -35 6
-10 4 -16 1 -16 -8z"/>
<path d="M3387 4199 c-150 -35 -283 -176 -316 -337 -68 -329 179 -598 508
-552 84 11 195 59 248 106 30 27 32 34 34 104 2 41 2 121 1 178 l-2 102 -175
0 -175 0 0 -60 c0 -33 1 -63 3 -67 1 -5 47 -9 102 -9 66 -1 100 -6 99 -13 -1
-6 -2 -40 -2 -76 l-2 -65 -52 -27 c-46 -24 -64 -28 -143 -28 -103 0 -134 12
-203 78 -58 56 -82 124 -82 231 0 72 4 90 31 144 53 107 139 159 258 155 63
-2 149 -40 184 -82 l23 -28 24 19 c90 73 93 77 76 104 -27 40 -107 93 -175
114 -67 21 -193 26 -264 9z"/>
<path d="M5330 4055 l0 -95 -50 0 -50 0 0 -59 0 -60 48 -3 47 -3 5 -215 c5
-202 6 -217 27 -246 40 -56 151 -81 233 -53 32 11 32 13 26 57 -3 25 -6 53 -6
63 0 15 -5 16 -32 9 -39 -12 -76 -3 -88 20 -6 10 -10 98 -10 195 l0 177 68 -3
67 -4 3 63 3 62 -71 0 -70 0 0 95 0 95 -75 0 -75 0 0 -95z"/>
<path d="M4880 3973 c-128 -23 -189 -86 -190 -196 0 -94 49 -144 178 -182 48
-14 102 -32 119 -40 53 -24 57 -91 7 -113 -59 -28 -175 -3 -231 49 l-21 21
-42 -53 -42 -53 24 -20 c103 -85 295 -105 403 -41 117 68 126 238 17 310 -23
15 -84 40 -138 55 -110 33 -140 54 -130 95 17 67 159 67 237 -1 14 -13 20 -9
53 33 20 26 35 52 33 57 -1 6 -32 25 -67 43 -64 31 -153 47 -210 36z"/>
<path d="M4173 3953 c-59 -20 -137 -94 -168 -158 -35 -71 -44 -179 -22 -256
30 -103 101 -180 198 -215 58 -21 174 -21 237 0 51 17 142 88 142 109 0 7 -22
27 -49 45 l-49 33 -33 -31 c-85 -78 -230 -57 -279 41 -37 72 -47 69 215 69
l235 0 0 48 c0 67 -25 157 -58 205 -34 51 -101 103 -150 117 -53 14 -170 11
-219 -7z m206 -130 c29 -22 71 -89 71 -115 0 -16 -14 -18 -161 -18 l-161 0 6
33 c9 46 36 79 87 105 52 28 116 25 158 -5z"/>
<path d="M5849 3954 c-25 -7 -67 -32 -93 -55 l-47 -42 41 -42 42 -42 48 32
c110 74 240 39 240 -65 l0 -39 -69 6 c-89 7 -189 -12 -244 -47 -77 -48 -108
-151 -72 -237 33 -77 92 -112 193 -113 73 0 114 15 165 60 l37 32 0 -41 0 -41
76 0 76 0 -4 238 c-3 201 -6 243 -21 277 -27 60 -74 103 -131 120 -62 19 -176
18 -237 -1z m231 -403 c0 -55 -2 -61 -35 -89 -80 -71 -215 -44 -215 43 0 70
55 104 173 105 l77 0 0 -59z"/>
<path d="M6570 3961 c-90 -28 -155 -86 -196 -176 -34 -75 -39 -189 -10 -272
25 -73 90 -143 167 -177 82 -37 199 -40 274 -7 62 27 129 91 163 156 24 45 27
61 27 155 0 90 -3 112 -23 153 -34 68 -102 132 -167 156 -58 22 -182 28 -235
12z m194 -150 c106 -66 110 -268 7 -338 -133 -90 -288 20 -267 190 17 144 147
218 260 148z"/>
</g>
</svg>
